<svg xmlns='http://www.w3.org/2000/svg' viewBox='0 0 2000 2000'>
  <!-- Red -->
  <path d="M 860,470 798,486 754,520 725,575 719,627 728,682 756,745 798,800 881,871 811,798 769,728 749,651 756,590 798,528 849,501 924,498 996,528 938,485 Z" fill="#D63031" />
  <!-- Gold -->
  <path d="M 1006,525 1064,501 1102,495 1143,498 1187,515 1226,549 1249,594 1255,645 1242,707 1268,669 1285,629 1278,570 1253,524 1211,489 1156,471 1103,472 1050,491 Z" fill="#F5A623" />
  <!-- Green -->
  <path d="M 1283,651 1275,673 1256,707 1235,734 1208,759 1181,778 1140,800 1008,853 966,881 938,911 1000,954 1146,854 1200,807 1240,759 1256,733 1272,698 Z" fill="#27AE60" />
  <path d="M 993,678 983,682 961,700 945,707 933,710 885,708 871,715 851,739 834,780 831,800 849,822 880,852 879,827 914,810 917,811 929,868 937,894 962,869 956,828 946,789 937,776 928,773 892,780 914,746 936,741 961,730 981,716 995,702 1002,687 1000,682 Z" fill="#27AE60" />
  <path d="M 891,644 890,645 888,645 887,646 885,646 884,647 881,648 877,652 876,652 876,653 873,656 873,657 871,659 871,662 870,663 870,665 869,666 869,675 870,676 870,679 871,680 871,682 872,683 872,684 874,686 874,687 880,693 881,693 886,696 888,696 889,697 893,697 894,698 897,698 898,697 904,697 905,696 906,696 907,695 908,695 909,694 912,693 919,686 919,685 922,680 922,678 923,677 923,664 921,661 921,659 920,658 920,657 917,654 917,653 914,650 913,650 911,648 910,648 907,646 905,646 904,645 902,645 901,644 Z" fill="#27AE60" />
  <!-- Blue -->
  <path d="M 1145,594 1107,588 1073,598 1053,615 1029,644 999,669 1007,682 1018,682 1046,666 1073,644 1089,661 1102,683 1072,708 1057,727 1057,799 1059,811 1066,817 1080,812 1084,807 1089,743 1132,716 1139,723 1167,774 1195,756 1168,678 1142,627 1164,635 1193,660 1205,657 1206,645 1188,621 1167,605 Z" fill="#2E86DE" />
  <path d="M 1050,535 1049,536 1048,536 1047,537 1044,538 1037,545 1037,546 1035,548 1035,550 1034,551 1034,553 1033,554 1033,559 1032,560 1032,561 1033,562 1033,568 1034,569 1034,571 1035,572 1036,575 1039,578 1039,579 1042,582 1043,582 1048,586 1050,586 1051,587 1053,587 1054,588 1066,588 1067,587 1070,587 1071,586 1074,585 1076,583 1077,583 1083,577 1083,576 1085,574 1085,572 1087,569 1087,565 1088,564 1088,558 1087,557 1087,553 1086,552 1086,550 1085,549 1084,546 1076,538 1075,538 1070,535 1068,535 1067,534 1053,534 1052,535 Z" fill="#2E86DE" />
  <!-- Text/Black -->
  <path d="M 791,1067 799,1078 885,1078 881,1115 866,1115 849,1088 828,1086 814,1095 818,1105 847,1099 852,1112 829,1126 811,1118 805,1131 835,1165 854,1172 863,1151 840,1154 832,1145 865,1122 886,1133 888,1167 907,1182 902,1078 976,1079 975,1106 934,1098 919,1124 940,1148 974,1146 978,1168 997,1182 991,1078 1007,1080 1008,1165 1028,1182 1022,1078 1117,1078 1114,1115 1099,1115 1083,1089 1061,1086 1047,1094 1049,1103 1080,1099 1085,1112 1062,1126 1043,1118 1037,1128 1080,1172 1096,1165 1095,1150 1073,1154 1065,1145 1096,1123 1117,1132 1121,1169 1140,1182 1133,1079 1208,1078 1209,1110 1168,1098 1153,1113 1152,1138 1171,1163 1169,1122 1181,1114 1206,1120 1218,1175 1206,1183 1227,1187 1230,1198 1219,1207 1173,1199 1207,1217 1237,1202 1223,1160 1223,1079 1237,1077 1229,1066 Z" fill="#000000" />
  <path d="M 1043,990 1044,991 1044,992 1045,992 1047,994 1047,995 1048,995 1049,996 1049,997 1068,1016 1070,1016 1077,1009 1078,1009 1080,1007 1083,1007 1084,1006 1089,1006 1090,1007 1093,1008 1103,1018 1103,1017 1102,1017 1101,1016 1101,1015 1099,1013 1099,1012 1095,1008 1095,1007 1088,1000 1087,1000 1086,999 1086,998 1085,998 1081,994 1080,994 1078,992 1077,992 1076,991 1075,991 1072,989 1069,989 1068,988 1066,988 1065,987 1049,987 1048,988 1047,988 1046,989 1044,989 Z" fill="#000000" />
  <path d="M 811,990 812,991 812,992 836,1016 838,1016 838,1015 839,1014 840,1014 840,1013 841,1012 842,1012 845,1009 846,1009 848,1007 851,1007 852,1006 857,1006 858,1007 859,1007 861,1009 862,1009 868,1015 868,1013 867,1013 866,1012 866,1011 859,1004 859,1003 856,1000 855,1000 849,994 848,994 846,992 845,992 844,991 843,991 840,989 837,989 836,988 834,988 833,987 817,987 816,988 814,988 Z" fill="#000000" />
</svg>
